<svg width="24" height="24" viewBox="0 0 24 24" fill="none" xmlns="http://www.w3.org/2000/svg">
<path d="M6.37507 0.945838C6.15107 0.945839 5.94068 1.0524 5.80823 1.23301C5.67564 1.4135 5.63732 1.6463 5.70439 1.85993L8.29193 10.089C7.5863 10.4204 7.07824 11.1416 7.07837 11.9999C7.07836 12.8573 7.58603 13.5793 8.29193 13.9108L5.70424 22.1399C5.63718 22.3536 5.67576 22.5864 5.80821 22.7667C5.94066 22.9473 6.15119 23.054 6.37505 23.0539L17.6256 23.0539C17.8134 23.0539 17.9919 22.9789 18.1228 22.848C18.3081 22.6628 18.3749 22.3898 18.2963 22.1398L15.7088 13.9108C16.4144 13.5793 16.9225 12.8582 16.9223 11.9999C16.9225 11.1426 16.4147 10.4204 15.7088 10.0889L18.2963 1.85992C18.3635 1.64642 18.3248 1.41349 18.1925 1.23301C18.06 1.05239 17.8494 0.945831 17.6256 0.945831L6.37507 0.945838ZM9.70372 9.89034L8.21762 5.16477L15.7828 5.16477L14.2968 9.89046L9.70372 9.89034ZM15.7829 18.8351L8.21774 18.8351L9.70372 14.1094L14.297 14.1094L15.7829 18.8351ZM16.6674 21.6477L7.3333 21.6477L7.77558 20.2413L16.2251 20.2413L16.6674 21.6477ZM15.5161 12C15.5161 12.3874 15.2012 12.7023 14.8141 12.703C14.8118 12.703 14.8094 12.703 14.8072 12.7032L9.19282 12.703C9.19087 12.7032 9.18893 12.703 9.18686 12.703C8.79882 12.7027 8.48459 12.3887 8.48459 12C8.48459 11.6124 8.79947 11.2975 9.1866 11.297C9.1888 11.2968 9.19113 11.2968 9.19346 11.2968L14.8129 11.2968C15.2016 11.2968 15.516 11.6112 15.5161 12ZM16.2251 3.75841L7.77559 3.75842L7.33331 2.35206L16.6673 2.35219L16.2251 3.75841Z" fill="#DFB57B"/>
</svg>
