<svg width="16" height="16" viewBox="0 0 16 16" fill="none" xmlns="http://www.w3.org/2000/svg">
<path fill-rule="evenodd" clip-rule="evenodd" d="M7.75766 0.0637035C7.93286 -0.0212376 8.13892 -0.0212345 8.31413 0.0637129L8.30003 0.0927825C8.31414 0.063717 8.31413 0.0637129 8.31413 0.0637129L11.575 1.64454C13.2158 2.44015 14.8813 3.24795 14.9723 3.29313C15.1645 3.38852 15.3896 3.52733 15.4187 3.83951L15.4194 3.84698L15.428 12.0793C15.428 12.3255 15.2843 12.5469 15.0684 12.6522L8.32751 15.9197C8.21975 15.9746 8.12156 16.0042 8.01825 15.9995C7.91859 15.995 7.83239 15.9586 7.75531 15.9235L7.75174 15.9218L1.02822 12.663L1.02761 12.6627C0.804657 12.5561 0.666687 12.3324 0.666687 12.0893V3.87511C0.677097 3.64089 0.813064 3.42804 1.0275 3.32572L7.75766 0.0637035ZM8.03427 1.16359L6.07345 2.11565L11.722 4.85442L13.6828 3.90237L8.03427 1.16359ZM2.38582 3.90233L8.03425 6.64105L10.633 5.38133L4.98457 2.64261L2.38582 3.90233ZM12.0859 5.73081V7.97291C12.0859 8.23445 11.8723 8.44809 11.6107 8.44809C11.3492 8.44809 11.1356 8.23445 11.1356 7.97291V6.19373L8.50943 7.46832V14.5916L14.3096 11.7759V4.65248L12.0859 5.73081ZM1.77854 4.66556L7.55907 7.46834V14.5917L1.77854 11.7889V4.66556Z" fill="#231F10"/>
</svg>
