<svg width="16" height="15" viewBox="0 0 16 15" fill="none" xmlns="http://www.w3.org/2000/svg">
<path fill-rule="evenodd" clip-rule="evenodd" d="M0 1.25C0 0.559644 0.559644 0 1.25 0H14.75C15.4404 0 16 0.559644 16 1.25C16 1.94036 15.4404 2.5 14.75 2.5H1.25C0.559644 2.5 0 1.94036 0 1.25Z" fill="#231F10"/>
<path fill-rule="evenodd" clip-rule="evenodd" d="M0 7.25C0 6.55964 0.559644 6 1.25 6H14.75C15.4404 6 16 6.55964 16 7.25C16 7.94036 15.4404 8.5 14.75 8.5H1.25C0.559644 8.5 0 7.94036 0 7.25Z" fill="#231F10"/>
<path fill-rule="evenodd" clip-rule="evenodd" d="M0 13.25C0 12.5596 0.559644 12 1.25 12H14.75C15.4404 12 16 12.5596 16 13.25C16 13.9404 15.4404 14.5 14.75 14.5H1.25C0.559644 14.5 0 13.9404 0 13.25Z" fill="#231F10"/>
</svg>
