<svg width="16" height="16" viewBox="0 0 16 16" fill="none" xmlns="http://www.w3.org/2000/svg">
<path fill-rule="evenodd" clip-rule="evenodd" d="M11.0721 3.08092H13.7944C14.0921 3.08092 14.3333 3.31506 14.3333 3.60396V14.4309C14.3333 15.3641 13.7391 16 12.7166 16H2.61671C1.7252 16 1 15.2962 1 14.4309V3.60396C1 3.31506 1.24124 3.08092 1.5389 3.08092H4.26132C4.46016 1.34862 5.91142 -1.48682e-07 7.66667 0C9.42545 1.48982e-07 10.874 1.34583 11.0721 3.08092ZM11.0952 4.127V4.65088C11.4109 4.65088 11.6667 4.91113 11.6667 5.23224C11.6667 5.55335 11.4109 5.8136 11.0952 5.8136H9.95238C9.63675 5.8136 9.38095 5.55335 9.38095 5.23224C9.38095 4.91113 9.63675 4.65088 9.95238 4.65088V4.127H5.38095V4.65088C5.69658 4.65088 5.95238 4.91113 5.95238 5.23224C5.95238 5.55335 5.69658 5.8136 5.38095 5.8136H4.23809C3.92247 5.8136 3.66667 5.55335 3.66667 5.23224C3.66667 4.91113 3.92247 4.65088 4.23809 4.65088V4.127H2.0778V12.1818H13.2555V4.127H11.0952ZM9.91746 3.08092C9.72823 1.9907 8.79261 1.16272 7.66667 1.16272C6.54292 1.16272 5.60587 1.99221 5.41604 3.08092H9.91746ZM2.0778 14.4309V13.2279H13.2555V14.4309C13.2555 14.7194 13.0139 14.954 12.7166 14.954H2.61671C2.31947 14.954 2.0778 14.7194 2.0778 14.4309Z" fill="white"/>
</svg>
