<svg width="16" height="16" viewBox="0 0 16 16" fill="none" xmlns="http://www.w3.org/2000/svg" cursor='pointer'>
<path d="M6.37309 9.11544C6.62508 9.04873 6.81778 8.82639 6.84001 8.55957C6.86225 8.29276 6.72884 8.04077 6.48426 7.92218C5.51335 7.44043 4.91302 6.48435 4.91302 5.41709C4.91302 3.86808 6.17298 2.60812 7.72199 2.60812C9.27099 2.60812 10.531 3.86808 10.531 5.41709C10.531 6.48435 9.92321 7.44043 8.9523 7.92218C8.71513 8.04077 8.57431 8.29276 8.59655 8.55957C8.61878 8.82639 8.80407 9.04132 9.06347 9.11544C11.072 9.66389 12.5247 11.376 12.7841 13.3919H2.6525C2.9045 11.3685 4.36457 9.65648 6.37309 9.11544ZM3.63082 5.41709C3.63082 6.53623 4.08293 7.57384 4.86114 8.32982C2.73403 9.38966 1.33325 11.5909 1.33325 14.0293C1.33325 14.385 1.6223 14.6667 1.97064 14.6667H13.4733C13.8291 14.6667 14.1107 14.3776 14.1107 14.0293C14.1107 11.5909 12.7099 9.38966 10.5754 8.32982C11.3536 7.57384 11.8057 6.53623 11.8057 5.41709C11.8131 3.16398 9.97509 1.33334 7.72199 1.33334C5.46888 1.33334 3.63082 3.16398 3.63082 5.41709Z" fill="white"/>
</svg>
