<svg width="18" height="18" viewBox="0 0 18 18" fill="none" xmlns="http://www.w3.org/2000/svg">
<path fill-rule="evenodd" clip-rule="evenodd" d="M17.6438 2.07621C18.1187 1.60125 18.1187 0.831183 17.6438 0.356221C17.1688 -0.11874 16.3988 -0.11874 15.9238 0.356221L9 7.28001L2.07621 0.356221C1.60125 -0.11874 0.831183 -0.11874 0.356221 0.356221C-0.11874 0.831183 -0.11874 1.60125 0.356221 2.07621L7.28001 9L0.356221 15.9238C-0.11874 16.3988 -0.11874 17.1688 0.356221 17.6438C0.831183 18.1187 1.60125 18.1187 2.07621 17.6438L9 10.72L15.9238 17.6438C16.3988 18.1187 17.1688 18.1187 17.6438 17.6438C18.1187 17.1688 18.1187 16.3988 17.6438 15.9238L10.72 9L17.6438 2.07621Z" fill="#231F10"/>
</svg>
