<svg width="10" height="16" viewBox="0 0 10 16" fill="none" xmlns="http://www.w3.org/2000/svg">
<path d="M4.89751 10.7036C4.89751 10.1053 5.03047 9.79501 5.54017 9.44044L6.89197 8.57618C8.7313 7.44598 9.72853 6.33795 9.72853 4.27701C9.72853 1.59557 7.95568 0 4.83102 0C1.81717 0 0 1.75069 0 4.40997V5.20776H2.74792V4.5651C2.74792 3.30194 3.50138 2.39335 4.83102 2.39335C6.1385 2.39335 6.89197 3.12465 6.89197 4.27701C6.89197 5.25208 6.24931 5.89474 5.38504 6.44875L3.83379 7.44598C2.34903 8.39889 2.06094 8.95291 2.06094 10.3047V10.7922H4.89751V10.7036ZM1.79501 16H5.16343V12.4765H1.79501V16Z" fill="black"/>
</svg>
