<svg width="14" height="16" viewBox="0 0 14 16" fill="none" xmlns="http://www.w3.org/2000/svg">
<path d="M6.48865 0.00401124C3.3098 0.11555 0.668966 2.59564 0.363876 5.76136C0.301546 6.39451 0.337632 7.00797 0.44917 7.59519C0.44917 7.59519 0.459012 7.66408 0.491817 7.7953C0.590233 8.23489 0.737858 8.66136 0.921568 9.06159C1.56127 10.5772 3.0408 13.1131 6.36071 15.872C6.5641 16.0426 6.86263 16.0426 7.06931 15.872C10.3892 13.1163 11.8687 10.5805 12.5117 9.05831C12.6987 8.65808 12.8431 8.23489 12.9415 7.79202C12.971 7.66408 12.9841 7.59191 12.9841 7.59191C13.0596 7.19824 13.0989 6.79473 13.0989 6.38139C13.0989 2.77935 10.1169 -0.12393 6.48865 0.00401124ZM6.71501 9.55695C5.00256 9.55695 3.61489 8.16928 3.61489 6.45684C3.61489 4.7444 5.00256 3.35673 6.71501 3.35673C8.42745 3.35673 9.81512 4.7444 9.81512 6.45684C9.81512 8.16928 8.42745 9.55695 6.71501 9.55695Z" fill="#231F10"/>
</svg>
